<mxfile host="app.diagrams.net" modified="2023-04-11T07:00:31.734Z" agent="Mozilla/5.0 (X11; Linux x86_64) AppleWebKit/537.36 (KHTML, like Gecko) Chrome/112.0.0.0 Safari/537.36" version="21.1.5" etag="hQVjJ6oM4qhCzrnMS2hV" type="github">
  <diagram name="第 1 页" id="0UwC7WB62zNbJPRH-Qvm">
    <mxGraphModel>
      <root>
        <mxCell id="0" />
        <mxCell id="1" parent="0" />
      </root>
    </mxGraphModel>
  </diagram>
</mxfile>
